<svg width="46" height="43" viewBox="0 0 46 43" fill="none" xmlns="http://www.w3.org/2000/svg">
<rect width="46" height="43" rx="5" fill="#F7F6F5"/>
<path d="M12.8883 19.7728C12.8883 20.0099 13.0803 20.2025 13.3166 20.2025H17.6001L18.4549 22.6322C18.5287 22.8415 18.7189 22.9804 18.9405 22.986C19.1602 22.986 19.3596 22.8637 19.4445 22.6582L20.2532 20.258C20.2532 20.258 20.2643 20.2488 20.2698 20.2488H23.1759C23.6079 20.2488 23.9679 19.9154 24.0012 19.4858L24.6437 14.4763L25.7072 23.9768C25.7404 24.2194 25.9435 24.4027 26.1872 24.412C26.1946 24.412 26.2001 24.412 26.2075 24.412C26.4438 24.412 26.6488 24.2471 26.7005 24.0138L27.919 18.4394L28.1627 19.5617L28.1701 19.5895C28.268 19.9284 28.5818 20.1636 28.9345 20.1636H32.6603C32.8966 20.1636 33.0887 19.971 33.0887 19.7339C33.0887 19.4969 32.8966 19.3043 32.6603 19.3043H28.9843L28.4526 16.8634L28.4452 16.8338C28.3751 16.593 28.148 16.4319 27.9006 16.4375C27.6495 16.4467 27.4371 16.6245 27.3836 16.869L26.3201 21.734L25.1422 11.202C25.1071 10.9594 24.8948 10.7835 24.6529 10.7909C24.4147 10.8001 24.2227 10.9816 24.1987 11.2168L23.1537 19.3821H20.2735C19.9172 19.3821 19.5978 19.5969 19.4611 19.9284L18.9515 21.4433L18.4124 19.9136C18.2906 19.5691 17.9656 19.3376 17.6019 19.3376H13.3203C13.084 19.3376 12.892 19.5302 12.892 19.7673L12.8883 19.7728Z" fill="#1B1B1B"/>
<path d="M33.1015 6.44976C33.0794 6.43495 33.0536 6.46828 33.0739 6.48495C36.4618 9.34436 38.6183 13.6261 38.6183 18.4134C38.6183 27.0212 31.6614 33.9994 23.0798 33.9994C23.0614 33.9994 23.0448 33.9994 23.0263 33.9994C23.0078 33.9994 22.9912 33.9994 22.9728 33.9994C22.8472 33.9994 22.7235 33.9957 22.598 33.9938C22.5536 33.9938 22.5093 33.9938 22.465 33.992C20.0113 33.9105 17.7053 33.2419 15.6817 32.1233C10.8333 29.4862 7.54139 24.3359 7.54139 18.4134C7.54139 13.276 10.021 8.7221 13.8428 5.88307C13.865 5.8664 13.8428 5.83121 13.8188 5.84603C8.52362 8.99249 4.97504 14.7798 4.97504 21.3987C4.97504 28.0176 8.39992 33.5975 13.5363 36.781C13.7394 36.9069 13.9757 36.9699 14.2158 36.9699H31.7593C31.9993 36.9699 32.2338 36.9069 32.4387 36.781C37.5751 33.5993 41 27.9009 41 21.3987C41 14.8965 37.8687 9.69808 33.1034 6.44791L33.1015 6.44976Z" fill="#1B1B1B"/>
</svg>
