<svg width="899" height="443" viewBox="0 0 899 443" fill="none" xmlns="http://www.w3.org/2000/svg">
<g clip-path="url(#clip0_3341_2154)">
<rect width="899" height="443" rx="80.8955" fill="#FDFBFF"/>
<rect x="232" y="119" width="95" height="460" rx="24" fill="url(#paint0_linear_3341_2154)"/>
<rect x="595" y="119" width="95" height="460" rx="24" fill="url(#paint1_linear_3341_2154)" fill-opacity="0.26"/>
<path d="M83.7937 59.5238L81.2217 59.1058V57.1125H98.3577L98.7756 62.5137H96.5251L95.4642 59.3309L88.5198 59.0415V67.6899L92.9886 67.5934L93.503 64.9571H95.5606V72.7374H93.503L92.9886 69.9725L88.5198 69.8761V78.9424L96.3001 78.5566L98.1648 74.4414L100.576 75.1165L99.7401 81H81.2539V79.071L83.7937 78.7495V59.5238ZM102.514 79.071L104.314 78.7816V66.1788L102.257 65.6001V63.3818L107.593 62.7066L107.979 62.9638L108.462 64.0248V65.3751C109.169 64.6892 110.176 64.0891 111.484 63.5747C112.813 63.0389 113.959 62.7709 114.924 62.7709C116.081 62.7709 117.013 62.9638 117.721 63.3496C118.449 63.7354 118.996 64.3356 119.36 65.15C120.068 64.507 121 63.9498 122.157 63.4782C123.315 63.0067 124.451 62.7709 125.565 62.7709C127.473 62.7709 128.823 63.3282 129.616 64.4427C130.409 65.5573 130.806 67.3791 130.806 69.9082V78.7816L132.896 79.071V81H124.569V79.071L126.24 78.7816V70.0368C126.24 68.365 126.037 67.1969 125.63 66.5325C125.244 65.8466 124.494 65.5037 123.379 65.5037C122.779 65.5037 122.157 65.643 121.514 65.9216C120.893 66.1788 120.336 66.5003 119.843 66.8861C119.993 67.7006 120.068 68.7187 120.068 69.9404V78.7816L122.061 79.071V81H113.67V79.071L115.438 78.7816V69.9404C115.438 68.8259 115.363 67.9578 115.213 67.3362C115.084 66.6932 114.827 66.2324 114.441 65.9538C114.056 65.6537 113.498 65.5037 112.77 65.5037C112.084 65.5037 111.398 65.6644 110.712 65.9859C110.048 66.286 109.447 66.6504 108.912 67.079V78.7816L110.808 79.071V81H102.514V79.071ZM135.072 72.0944C135.072 70.0797 135.468 68.365 136.261 66.9504C137.076 65.5358 138.158 64.4749 139.509 63.7676C140.859 63.0389 142.327 62.6745 143.913 62.6745C146.614 62.6745 148.693 63.5104 150.15 65.1822C151.629 66.8326 152.369 69.0831 152.369 71.9337C152.369 73.9699 151.961 75.706 151.147 77.142C150.354 78.5566 149.282 79.6175 147.932 80.3248C146.603 81.0107 145.135 81.3537 143.527 81.3537C140.848 81.3537 138.769 80.5285 137.29 78.8781C135.811 77.2063 135.072 74.9451 135.072 72.0944ZM143.785 79.2639C146.207 79.2639 147.418 76.9277 147.418 72.2552C147.418 69.8118 147.128 67.9578 146.549 66.6932C145.971 65.4072 145.028 64.7642 143.72 64.7642C141.234 64.7642 139.991 67.1005 139.991 71.7729C139.991 74.2163 140.291 76.081 140.891 77.367C141.513 78.6316 142.477 79.2639 143.785 79.2639ZM160.692 81.2894C159.342 81.2894 158.346 80.9786 157.703 80.357C157.06 79.7354 156.738 78.7495 156.738 77.3992V65.6001H154.648V63.9283C154.82 63.864 155.131 63.7569 155.581 63.6068C156.031 63.4354 156.374 63.2961 156.609 63.1889C156.974 62.9103 157.285 62.428 157.542 61.7421C157.735 61.292 158.088 60.1775 158.603 58.3985H161.175L161.303 63.1246H166.222V65.6001H161.335V74.6343C161.335 75.8346 161.368 76.6812 161.432 77.1741C161.496 77.6671 161.636 77.9886 161.85 78.1386C162.064 78.2672 162.439 78.3315 162.975 78.3315C163.511 78.3315 164.068 78.278 164.647 78.1708C165.226 78.0422 165.708 77.8922 166.094 77.7207L166.705 79.5211C166.104 79.9712 165.226 80.3784 164.068 80.7428C162.911 81.1072 161.786 81.2894 160.692 81.2894ZM172.241 60.1989C171.469 60.1989 170.858 59.9739 170.408 59.5238C169.958 59.0737 169.733 58.495 169.733 57.7877C169.733 56.9732 169.99 56.2981 170.505 55.7622C171.019 55.2264 171.705 54.9585 172.562 54.9585C173.42 54.9585 174.073 55.1943 174.524 55.6658C174.974 56.1159 175.199 56.6839 175.199 57.3697C175.199 58.2271 174.941 58.9129 174.427 59.4273C173.913 59.9417 173.195 60.1989 172.273 60.1989H172.241ZM170.537 66.1788L168.254 65.568V63.4139L174.138 62.7066H174.202L175.102 63.3496V78.8138L177.256 79.071V81H168.286V79.071L170.537 78.7816V66.1788ZM179.561 72.0944C179.561 70.0797 179.957 68.365 180.75 66.9504C181.565 65.5358 182.647 64.4749 183.997 63.7676C185.348 63.0389 186.816 62.6745 188.402 62.6745C191.103 62.6745 193.182 63.5104 194.639 65.1822C196.118 66.8326 196.857 69.0831 196.857 71.9337C196.857 73.9699 196.45 75.706 195.636 77.142C194.843 78.5566 193.771 79.6175 192.421 80.3248C191.092 81.0107 189.624 81.3537 188.016 81.3537C185.337 81.3537 183.258 80.5285 181.779 78.8781C180.3 77.2063 179.561 74.9451 179.561 72.0944ZM188.273 79.2639C190.695 79.2639 191.906 76.9277 191.906 72.2552C191.906 69.8118 191.617 67.9578 191.038 66.6932C190.46 65.4072 189.517 64.7642 188.209 64.7642C185.723 64.7642 184.48 67.1005 184.48 71.7729C184.48 74.2163 184.78 76.081 185.38 77.367C186.001 78.6316 186.966 79.2639 188.273 79.2639ZM201.581 66.1788L199.523 65.6001V63.3818L204.86 62.7066H204.956L205.76 63.3496V64.6035L205.728 65.3751C206.478 64.6678 207.453 64.0569 208.654 63.5425C209.854 63.0281 211.065 62.7709 212.286 62.7709C213.594 62.7709 214.612 63.0174 215.341 63.5104C216.091 63.9819 216.627 64.7321 216.948 65.7609C217.27 66.7897 217.43 68.1829 217.43 69.9404V78.8138L219.392 79.071V81H211.097V79.071L212.833 78.8138V69.9404C212.833 68.8259 212.758 67.9578 212.608 67.3362C212.458 66.6932 212.179 66.2324 211.772 65.9538C211.386 65.6537 210.829 65.5037 210.1 65.5037C208.879 65.5037 207.571 66.0288 206.178 67.079V78.7816L208.107 79.071V81H199.716V79.071L201.581 78.7816V66.1788ZM221.31 75.9846C221.31 74.0342 222.285 72.566 224.235 71.58C226.207 70.5941 228.747 70.0904 231.855 70.069V69.3295C231.855 68.4508 231.759 67.7649 231.566 67.2719C231.394 66.779 231.062 66.4146 230.569 66.1788C230.097 65.9216 229.401 65.793 228.479 65.793C227.429 65.793 226.486 65.9324 225.65 66.211C224.814 66.4682 223.946 66.8111 223.046 67.2398L222.049 65.1822C222.371 64.9036 222.907 64.5713 223.657 64.1855C224.428 63.7997 225.339 63.4675 226.39 63.1889C227.44 62.8888 228.522 62.7388 229.637 62.7388C231.287 62.7388 232.573 62.9531 233.495 63.3818C234.438 63.8105 235.113 64.4963 235.52 65.4394C235.927 66.3825 236.131 67.647 236.131 69.2331V79.071H237.867V80.8714C237.438 80.9786 236.828 81.0857 236.035 81.1929C235.241 81.3001 234.545 81.3537 233.945 81.3537C233.216 81.3537 232.723 81.2465 232.466 81.0322C232.23 80.8178 232.112 80.3784 232.112 79.714V78.8459C231.534 79.4889 230.783 80.0676 229.862 80.582C228.94 81.0965 227.901 81.3537 226.743 81.3537C225.757 81.3537 224.846 81.15 224.01 80.7428C223.196 80.3141 222.542 79.7033 222.049 78.9102C221.556 78.0958 221.31 77.1206 221.31 75.9846ZM228.801 78.6852C229.251 78.6852 229.765 78.5566 230.344 78.2994C230.923 78.0208 231.426 77.6885 231.855 77.3027V72.0301C229.926 72.0301 228.479 72.3624 227.515 73.0268C226.572 73.6698 226.1 74.5057 226.1 75.5345C226.1 76.5633 226.336 77.3456 226.807 77.8814C227.3 78.4173 227.965 78.6852 228.801 78.6852ZM241.738 57.4983L239.359 57.0804V55.3443L245.307 54.637H245.371L246.239 55.2478V78.8138L248.586 79.071V81H239.488V79.071L241.738 78.7816V57.4983ZM260.776 59.5238L258.364 59.1058V57.1125H263.058C263.766 57.1125 264.719 57.0697 265.92 56.9839C266.198 56.9625 266.616 56.9411 267.174 56.9196C267.752 56.8982 268.267 56.8875 268.717 56.8875C272.66 56.8875 275.608 57.8734 277.558 59.8453C279.53 61.8172 280.516 64.6142 280.516 68.2364C280.516 70.7656 280.023 73.0161 279.037 74.9879C278.072 76.9598 276.69 78.503 274.89 79.6175C273.089 80.7106 270.989 81.2572 268.588 81.2572C267.967 81.2572 266.991 81.2143 265.662 81.1286C264.419 81.0429 263.573 81 263.123 81H258.236V79.071L260.776 78.7495V59.5238ZM265.437 78.8459C266.166 79.0388 267.184 79.1353 268.492 79.1353C270.635 79.0924 272.318 78.2351 273.539 76.5633C274.761 74.8701 275.372 72.3409 275.372 68.9759C275.372 65.7823 274.772 63.3175 273.571 61.5814C272.371 59.8239 270.506 58.9451 267.977 58.9451C267.441 58.9451 266.927 58.9772 266.434 59.0415C265.963 59.1058 265.63 59.1487 265.437 59.1701V78.8459ZM286.712 60.1989C285.941 60.1989 285.33 59.9739 284.88 59.5238C284.43 59.0737 284.205 58.495 284.205 57.7877C284.205 56.9732 284.462 56.2981 284.976 55.7622C285.491 55.2264 286.177 54.9585 287.034 54.9585C287.891 54.9585 288.545 55.1943 288.995 55.6658C289.445 56.1159 289.67 56.6839 289.67 57.3697C289.67 58.2271 289.413 58.9129 288.899 59.4273C288.384 59.9417 287.666 60.1989 286.745 60.1989H286.712ZM285.009 66.1788L282.726 65.568V63.4139L288.609 62.7066H288.674L289.574 63.3496V78.8138L291.728 79.071V81H282.758V79.071L285.009 78.7816V66.1788ZM297.601 78.3637C297.772 78.6209 298.158 78.8674 298.758 79.1031C299.38 79.3175 300.002 79.4246 300.623 79.4246C301.63 79.4246 302.381 79.221 302.874 78.8138C303.388 78.3851 303.645 77.8279 303.645 77.142C303.645 76.4347 303.334 75.8667 302.713 75.438C302.091 74.9879 301.041 74.4414 299.562 73.7984L298.662 73.4126C297.183 72.791 296.079 72.0409 295.351 71.1621C294.622 70.2833 294.257 69.1474 294.257 67.7542C294.257 66.7897 294.547 65.9324 295.125 65.1822C295.704 64.4106 296.519 63.8105 297.569 63.3818C298.619 62.9531 299.83 62.7388 301.202 62.7388C302.209 62.7388 303.067 62.8031 303.774 62.9317C304.503 63.0603 305.263 63.2318 306.056 63.4461C306.485 63.5961 306.807 63.6819 307.021 63.7033V67.9149H304.481L303.742 65.4715C303.613 65.2572 303.324 65.0643 302.874 64.8928C302.424 64.7214 301.909 64.6356 301.33 64.6356C300.452 64.6356 299.744 64.8285 299.209 65.2143C298.694 65.5787 298.437 66.0931 298.437 66.7575C298.437 67.3577 298.619 67.8614 298.983 68.2686C299.348 68.6544 299.744 68.9545 300.173 69.1688C300.602 69.3831 301.395 69.7368 302.552 70.2297C303.71 70.7227 304.663 71.1942 305.413 71.6443C306.185 72.0944 306.817 72.6839 307.31 73.4126C307.825 74.1199 308.082 74.9879 308.082 76.0167C308.082 77.6028 307.46 78.8888 306.217 79.8747C304.974 80.8607 303.184 81.3537 300.848 81.3537C299.755 81.3537 298.769 81.2572 297.89 81.0643C297.033 80.8714 296.036 80.6142 294.9 80.2927L294.193 80.0676V75.8238H296.862L297.601 78.3637ZM316.105 81.2894C314.755 81.2894 313.758 80.9786 313.115 80.357C312.472 79.7354 312.151 78.7495 312.151 77.3992V65.6001H310.061V63.9283C310.232 63.864 310.543 63.7569 310.993 63.6068C311.443 63.4354 311.786 63.2961 312.022 63.1889C312.386 62.9103 312.697 62.428 312.954 61.7421C313.147 61.292 313.501 60.1775 314.015 58.3985H316.587L316.716 63.1246H321.635V65.6001H316.748V74.6343C316.748 75.8346 316.78 76.6812 316.845 77.1741C316.909 77.6671 317.048 77.9886 317.262 78.1386C317.477 78.2672 317.852 78.3315 318.388 78.3315C318.924 78.3315 319.481 78.278 320.06 78.1708C320.638 78.0422 321.12 77.8922 321.506 77.7207L322.117 79.5211C321.517 79.9712 320.638 80.3784 319.481 80.7428C318.323 81.1072 317.198 81.2894 316.105 81.2894ZM323.828 79.1031L325.95 78.8459V66.1788L323.892 65.6001V63.3818L328.875 62.7066H328.972L329.775 63.3496V64.0569L329.679 66.6611H329.775C329.925 66.2324 330.279 65.7073 330.836 65.0857C331.394 64.4427 332.09 63.8855 332.926 63.4139C333.783 62.921 334.705 62.6745 335.691 62.6745C336.163 62.6745 336.57 62.7388 336.913 62.8674V67.6899C336.27 67.2398 335.487 67.0147 334.566 67.0147C333.001 67.0147 331.64 67.4327 330.483 68.2686V78.8138L334.212 79.1031V81H323.828V79.1031ZM347.063 81.3537C344.233 81.3537 342.122 80.5285 340.729 78.8781C339.357 77.2063 338.671 74.9344 338.671 72.0623C338.671 70.1333 339.025 68.4615 339.732 67.0469C340.461 65.6323 341.479 64.5499 342.787 63.7997C344.094 63.0496 345.605 62.6745 347.32 62.6745C349.463 62.6745 351.113 63.2425 352.271 64.3784C353.428 65.493 354.028 67.0898 354.071 69.1688C354.071 70.5834 353.985 71.6336 353.814 72.3195H343.365C343.451 74.2699 343.912 75.7917 344.748 76.8848C345.584 77.9565 346.773 78.4923 348.316 78.4923C349.152 78.4923 350.01 78.353 350.888 78.0743C351.789 77.7957 352.496 77.4635 353.01 77.0777L353.814 78.8459C353.235 79.4675 352.292 80.0462 350.985 80.582C349.699 81.0965 348.391 81.3537 347.063 81.3537ZM349.57 70.3905C349.613 69.7904 349.635 69.3295 349.635 69.008C349.635 66.1574 348.681 64.7321 346.773 64.7321C345.723 64.7321 344.908 65.15 344.33 65.9859C343.751 66.8218 343.43 68.29 343.365 70.3905H349.57ZM360.206 78.3637C360.377 78.6209 360.763 78.8674 361.363 79.1031C361.985 79.3175 362.606 79.4246 363.228 79.4246C364.235 79.4246 364.985 79.221 365.478 78.8138C365.993 78.3851 366.25 77.8279 366.25 77.142C366.25 76.4347 365.939 75.8667 365.317 75.438C364.696 74.9879 363.646 74.4414 362.167 73.7984L361.267 73.4126C359.788 72.791 358.684 72.0409 357.955 71.1621C357.226 70.2833 356.862 69.1474 356.862 67.7542C356.862 66.7897 357.151 65.9324 357.73 65.1822C358.309 64.4106 359.123 63.8105 360.173 63.3818C361.224 62.9531 362.435 62.7388 363.806 62.7388C364.814 62.7388 365.671 62.8031 366.378 62.9317C367.107 63.0603 367.868 63.2318 368.661 63.4461C369.09 63.5961 369.411 63.6819 369.626 63.7033V67.9149H367.086L366.346 65.4715C366.218 65.2572 365.928 65.0643 365.478 64.8928C365.028 64.7214 364.514 64.6356 363.935 64.6356C363.056 64.6356 362.349 64.8285 361.813 65.2143C361.299 65.5787 361.041 66.0931 361.041 66.7575C361.041 67.3577 361.224 67.8614 361.588 68.2686C361.952 68.6544 362.349 68.9545 362.778 69.1688C363.206 69.3831 363.999 69.7368 365.157 70.2297C366.314 70.7227 367.268 71.1942 368.018 71.6443C368.79 72.0944 369.422 72.6839 369.915 73.4126C370.429 74.1199 370.686 74.9879 370.686 76.0167C370.686 77.6028 370.065 78.8888 368.822 79.8747C367.579 80.8607 365.789 81.3537 363.453 81.3537C362.36 81.3537 361.374 81.2572 360.495 81.0643C359.638 80.8714 358.641 80.6142 357.505 80.2927L356.798 80.0676V75.8238H359.466L360.206 78.3637ZM376.877 78.3637C377.049 78.6209 377.434 78.8674 378.035 79.1031C378.656 79.3175 379.278 79.4246 379.899 79.4246C380.907 79.4246 381.657 79.221 382.15 78.8138C382.664 78.3851 382.921 77.8279 382.921 77.142C382.921 76.4347 382.611 75.8667 381.989 75.438C381.367 74.9879 380.317 74.4414 378.838 73.7984L377.938 73.4126C376.459 72.791 375.355 72.0409 374.627 71.1621C373.898 70.2833 373.534 69.1474 373.534 67.7542C373.534 66.7897 373.823 65.9324 374.402 65.1822C374.98 64.4106 375.795 63.8105 376.845 63.3818C377.895 62.9531 379.106 62.7388 380.478 62.7388C381.485 62.7388 382.343 62.8031 383.05 62.9317C383.779 63.0603 384.54 63.2318 385.333 63.4461C385.761 63.5961 386.083 63.6819 386.297 63.7033V67.9149H383.757L383.018 65.4715C382.889 65.2572 382.6 65.0643 382.15 64.8928C381.7 64.7214 381.185 64.6356 380.607 64.6356C379.728 64.6356 379.02 64.8285 378.485 65.2143C377.97 65.5787 377.713 66.0931 377.713 66.7575C377.713 67.3577 377.895 67.8614 378.26 68.2686C378.624 68.6544 379.02 68.9545 379.449 69.1688C379.878 69.3831 380.671 69.7368 381.828 70.2297C382.986 70.7227 383.939 71.1942 384.69 71.6443C385.461 72.0944 386.093 72.6839 386.586 73.4126C387.101 74.1199 387.358 74.9879 387.358 76.0167C387.358 77.6028 386.736 78.8888 385.493 79.8747C384.25 80.8607 382.461 81.3537 380.124 81.3537C379.031 81.3537 378.045 81.2572 377.166 81.0643C376.309 80.8714 375.312 80.6142 374.177 80.2927L373.469 80.0676V75.8238H376.138L376.877 78.3637Z" fill="black"/>
<line y1="194.209" x2="111.855" y2="194.209" stroke="#5F5F5F" stroke-width="11"/>
<line x1="111.854" y1="217.576" x2="166.589" y2="217.576" stroke="#5F5F5F" stroke-width="11"/>
<line x1="167.141" y1="254.9" x2="224.802" y2="254.9" stroke="#EFCB00" stroke-width="11"/>
<line x1="224.354" y1="317.5" x2="282.016" y2="317.5" stroke="#B06B75" stroke-width="11"/>
<line x1="282.016" y1="291.5" x2="350.161" y2="291.5" stroke="#B06B75" stroke-width="11"/>
<line x1="350.161" y1="263.5" x2="388.951" y2="263.5" stroke="#EFCB00" stroke-width="11"/>
<line x1="388.951" y1="230.5" x2="449.758" y2="230.5" stroke="#EFCB00" stroke-width="11"/>
<line x1="537.806" y1="233.572" x2="625.381" y2="233.572" stroke="#5F5F5F" stroke-width="11"/>
<line x1="449.758" y1="194.5" x2="538.871" y2="194.5" stroke="#5F5F5F" stroke-width="11"/>
<line x1="625.38" y1="206.908" x2="654.572" y2="206.908" stroke="#5F5F5F" stroke-width="11"/>
<line x1="654.568" y1="178.473" x2="709.303" y2="178.473" stroke="#5F5F5F" stroke-width="11"/>
<line x1="818.775" y1="167.809" x2="910" y2="167.809" stroke="#5F5F5F" stroke-width="11"/>
<line x1="709.305" y1="150.035" x2="756.741" y2="150.035" stroke="#B7D7A8" stroke-width="11"/>
<line x1="756.742" y1="125.152" x2="815.126" y2="125.152" stroke="#B7D7A8" stroke-width="11"/>
<path d="M82.7406 396.753C83.1139 396.753 83.4071 396.865 83.6204 397.089C83.8337 397.302 83.9404 397.579 83.9404 397.92V400H68.3597V398.832C68.3597 398.598 68.4077 398.352 68.5037 398.096C68.5997 397.84 68.7543 397.606 68.9676 397.393L76.134 390.21C76.7419 389.602 77.2805 389.021 77.7497 388.466C78.2296 387.912 78.6348 387.357 78.9654 386.803C79.3067 386.248 79.5626 385.688 79.7333 385.123C79.9146 384.547 80.0052 383.945 80.0052 383.316C80.0052 382.708 79.9092 382.174 79.7173 381.716C79.536 381.247 79.28 380.863 78.9494 380.564C78.6295 380.255 78.2403 380.026 77.7817 379.876C77.3338 379.716 76.8379 379.636 76.294 379.636C75.7714 379.636 75.2862 379.711 74.8383 379.86C74.4011 380.01 74.0065 380.218 73.6546 380.484C73.3133 380.751 73.0254 381.071 72.7908 381.444C72.5668 381.807 72.4015 382.206 72.2949 382.644C72.1349 383.081 71.9269 383.374 71.671 383.524C71.4257 383.673 71.0631 383.705 70.5832 383.62L68.7756 383.3C68.9356 382.212 69.2342 381.257 69.6714 380.436C70.1193 379.615 70.6792 378.933 71.3511 378.389C72.0229 377.834 72.7908 377.418 73.6546 377.141C74.529 376.853 75.4728 376.709 76.486 376.709C77.5097 376.709 78.4482 376.864 79.3014 377.173C80.1652 377.472 80.9063 377.903 81.5249 378.469C82.1541 379.023 82.6446 379.7 82.9966 380.5C83.3485 381.3 83.5244 382.201 83.5244 383.204C83.5244 384.057 83.3965 384.846 83.1405 385.571C82.8953 386.296 82.5593 386.989 82.1327 387.651C81.7062 388.312 81.2049 388.957 80.6291 389.586C80.0639 390.205 79.4667 390.834 78.8375 391.474L73.2707 397.169C73.7292 397.041 74.1878 396.939 74.6464 396.865C75.1156 396.79 75.5582 396.753 75.9741 396.753H82.7406ZM91.0933 395.905C91.5732 396.523 92.0958 396.961 92.661 397.217C93.2369 397.462 93.8714 397.585 94.5646 397.585C95.9083 397.585 96.9534 397.094 97.6999 396.113C98.4571 395.132 98.8357 393.671 98.8357 391.73C98.8357 390.727 98.7503 389.874 98.5797 389.17C98.4091 388.456 98.1638 387.875 97.8439 387.427C97.5239 386.979 97.1347 386.654 96.6761 386.451C96.2176 386.248 95.7003 386.147 95.1245 386.147C94.25 386.147 93.4928 386.339 92.8529 386.723C92.2237 387.096 91.6372 387.635 91.0933 388.339V395.905ZM90.9174 386.051C91.5999 385.251 92.373 384.606 93.2369 384.115C94.1113 383.625 95.1245 383.38 96.2762 383.38C97.1933 383.38 98.0252 383.566 98.7717 383.939C99.5182 384.302 100.158 384.835 100.691 385.539C101.224 386.243 101.635 387.117 101.923 388.163C102.222 389.197 102.371 390.386 102.371 391.73C102.371 392.935 102.206 394.06 101.875 395.105C101.555 396.139 101.091 397.041 100.483 397.808C99.8754 398.566 99.1396 399.163 98.2758 399.6C97.412 400.027 96.4362 400.24 95.3484 400.24C94.3886 400.24 93.5728 400.085 92.9009 399.776C92.2397 399.467 91.6372 399.04 91.0933 398.496V405.423H87.6541V383.684H89.7336C90.2028 383.684 90.5014 383.902 90.6294 384.339L90.9174 386.051ZM105.713 400V383.684H107.792C108.261 383.684 108.56 383.902 108.688 384.339L108.912 385.763C109.211 385.422 109.52 385.113 109.84 384.835C110.16 384.547 110.501 384.302 110.864 384.099C111.237 383.886 111.631 383.721 112.047 383.604C112.474 383.486 112.932 383.428 113.423 383.428C113.946 383.428 114.425 383.502 114.863 383.652C115.3 383.801 115.684 384.014 116.014 384.291C116.356 384.569 116.649 384.905 116.894 385.299C117.14 385.694 117.342 386.136 117.502 386.627C117.747 386.062 118.057 385.576 118.43 385.171C118.803 384.766 119.219 384.435 119.678 384.179C120.136 383.923 120.621 383.737 121.133 383.62C121.656 383.492 122.184 383.428 122.717 383.428C123.592 383.428 124.37 383.566 125.053 383.843C125.746 384.121 126.327 384.526 126.796 385.059C127.276 385.582 127.639 386.227 127.884 386.995C128.129 387.763 128.252 388.637 128.252 389.618V400H124.813V389.618C124.813 388.466 124.562 387.603 124.061 387.027C123.57 386.44 122.84 386.147 121.869 386.147C121.432 386.147 121.021 386.222 120.637 386.371C120.254 386.52 119.918 386.739 119.63 387.027C119.342 387.315 119.112 387.677 118.942 388.115C118.782 388.541 118.702 389.042 118.702 389.618V400H115.263V389.618C115.263 388.424 115.023 387.549 114.543 386.995C114.063 386.43 113.359 386.147 112.431 386.147C111.791 386.147 111.2 386.312 110.656 386.643C110.112 386.963 109.611 387.405 109.152 387.971V400H105.713Z" fill="black" fill-opacity="0.69"/>
<path d="M249.888 383.3C250.048 382.212 250.346 381.257 250.783 380.436C251.231 379.615 251.791 378.933 252.463 378.389C253.135 377.834 253.903 377.418 254.767 377.141C255.641 376.853 256.585 376.709 257.598 376.709C258.622 376.709 259.55 376.858 260.381 377.157C261.224 377.445 261.944 377.85 262.541 378.373C263.149 378.895 263.613 379.519 263.933 380.244C264.263 380.969 264.428 381.764 264.428 382.628C264.428 383.364 264.338 384.014 264.157 384.579C263.986 385.134 263.735 385.624 263.405 386.051C263.085 386.478 262.69 386.835 262.221 387.123C261.752 387.411 261.224 387.651 260.637 387.843C262.066 388.259 263.138 388.925 263.853 389.842C264.567 390.749 264.924 391.89 264.924 393.265C264.924 394.375 264.716 395.361 264.3 396.225C263.885 397.089 263.319 397.819 262.605 398.416C261.901 399.014 261.075 399.472 260.125 399.792C259.187 400.101 258.19 400.256 257.134 400.256C255.95 400.256 254.927 400.117 254.063 399.84C253.199 399.552 252.452 399.147 251.823 398.624C251.205 398.091 250.687 397.451 250.272 396.705C249.856 395.958 249.504 395.121 249.216 394.193L250.703 393.569C251.098 393.399 251.471 393.351 251.823 393.425C252.186 393.5 252.447 393.697 252.607 394.017C252.778 394.359 252.97 394.726 253.183 395.121C253.396 395.505 253.668 395.862 253.999 396.193C254.34 396.513 254.756 396.785 255.246 397.009C255.748 397.222 256.361 397.329 257.086 397.329C257.822 397.329 258.462 397.211 259.006 396.977C259.56 396.731 260.019 396.422 260.381 396.049C260.755 395.665 261.032 395.238 261.213 394.769C261.394 394.3 261.485 393.836 261.485 393.377C261.485 392.802 261.416 392.274 261.277 391.794C261.139 391.303 260.867 390.887 260.461 390.546C260.067 390.205 259.502 389.938 258.766 389.746C258.041 389.544 257.086 389.442 255.902 389.442V386.963C256.873 386.952 257.689 386.856 258.35 386.675C259.022 386.483 259.555 386.227 259.949 385.907C260.355 385.576 260.643 385.182 260.813 384.723C260.995 384.265 261.085 383.763 261.085 383.22C261.085 382.633 260.995 382.116 260.813 381.668C260.632 381.22 260.376 380.847 260.045 380.548C259.725 380.239 259.342 380.01 258.894 379.86C258.446 379.711 257.95 379.636 257.406 379.636C256.883 379.636 256.398 379.711 255.95 379.86C255.513 380.01 255.118 380.218 254.767 380.484C254.425 380.751 254.137 381.071 253.903 381.444C253.668 381.807 253.497 382.206 253.391 382.644C253.242 383.081 253.039 383.374 252.783 383.524C252.538 383.673 252.175 383.705 251.695 383.62L249.888 383.3ZM272.093 395.905C272.573 396.523 273.096 396.961 273.661 397.217C274.237 397.462 274.871 397.585 275.565 397.585C276.908 397.585 277.953 397.094 278.7 396.113C279.457 395.132 279.836 393.671 279.836 391.73C279.836 390.727 279.75 389.874 279.58 389.17C279.409 388.456 279.164 387.875 278.844 387.427C278.524 386.979 278.135 386.654 277.676 386.451C277.218 386.248 276.7 386.147 276.124 386.147C275.25 386.147 274.493 386.339 273.853 386.723C273.224 387.096 272.637 387.635 272.093 388.339V395.905ZM271.917 386.051C272.6 385.251 273.373 384.606 274.237 384.115C275.111 383.625 276.124 383.38 277.276 383.38C278.193 383.38 279.025 383.566 279.772 383.939C280.518 384.302 281.158 384.835 281.691 385.539C282.224 386.243 282.635 387.117 282.923 388.163C283.222 389.197 283.371 390.386 283.371 391.73C283.371 392.935 283.206 394.06 282.875 395.105C282.555 396.139 282.091 397.041 281.483 397.808C280.875 398.566 280.14 399.163 279.276 399.6C278.412 400.027 277.436 400.24 276.348 400.24C275.389 400.24 274.573 400.085 273.901 399.776C273.24 399.467 272.637 399.04 272.093 398.496V405.423H268.654V383.684H270.734C271.203 383.684 271.501 383.902 271.629 384.339L271.917 386.051ZM286.713 400V383.684H288.792C289.261 383.684 289.56 383.902 289.688 384.339L289.912 385.763C290.211 385.422 290.52 385.113 290.84 384.835C291.16 384.547 291.501 384.302 291.864 384.099C292.237 383.886 292.631 383.721 293.047 383.604C293.474 383.486 293.932 383.428 294.423 383.428C294.946 383.428 295.425 383.502 295.863 383.652C296.3 383.801 296.684 384.014 297.014 384.291C297.356 384.569 297.649 384.905 297.894 385.299C298.14 385.694 298.342 386.136 298.502 386.627C298.747 386.062 299.057 385.576 299.43 385.171C299.803 384.766 300.219 384.435 300.678 384.179C301.136 383.923 301.621 383.737 302.133 383.62C302.656 383.492 303.184 383.428 303.717 383.428C304.592 383.428 305.37 383.566 306.053 383.843C306.746 384.121 307.327 384.526 307.796 385.059C308.276 385.582 308.639 386.227 308.884 386.995C309.129 387.763 309.252 388.637 309.252 389.618V400H305.813V389.618C305.813 388.466 305.562 387.603 305.061 387.027C304.57 386.44 303.84 386.147 302.869 386.147C302.432 386.147 302.021 386.222 301.637 386.371C301.254 386.52 300.918 386.739 300.63 387.027C300.342 387.315 300.112 387.677 299.942 388.115C299.782 388.541 299.702 389.042 299.702 389.618V400H296.263V389.618C296.263 388.424 296.023 387.549 295.543 386.995C295.063 386.43 294.359 386.147 293.431 386.147C292.791 386.147 292.2 386.312 291.656 386.643C291.112 386.963 290.611 387.405 290.152 387.971V400H286.713Z" fill="black" fill-opacity="0.69"/>
<path d="M440.534 391.49V383.076C440.534 382.404 440.582 381.668 440.677 380.868L432.935 391.49H440.534ZM446.708 391.49V393.473C446.708 393.665 446.644 393.831 446.516 393.969C446.399 394.108 446.218 394.177 445.972 394.177H443.525V400H440.534V394.177H430.568C430.322 394.177 430.109 394.108 429.928 393.969C429.757 393.82 429.645 393.639 429.592 393.425L429.24 391.666L440.294 376.949H443.525V391.49H446.708ZM453.093 395.905C453.573 396.523 454.096 396.961 454.661 397.217C455.237 397.462 455.871 397.585 456.565 397.585C457.908 397.585 458.953 397.094 459.7 396.113C460.457 395.132 460.836 393.671 460.836 391.73C460.836 390.727 460.75 389.874 460.58 389.17C460.409 388.456 460.164 387.875 459.844 387.427C459.524 386.979 459.135 386.654 458.676 386.451C458.218 386.248 457.7 386.147 457.124 386.147C456.25 386.147 455.493 386.339 454.853 386.723C454.224 387.096 453.637 387.635 453.093 388.339V395.905ZM452.917 386.051C453.6 385.251 454.373 384.606 455.237 384.115C456.111 383.625 457.124 383.38 458.276 383.38C459.193 383.38 460.025 383.566 460.772 383.939C461.518 384.302 462.158 384.835 462.691 385.539C463.224 386.243 463.635 387.117 463.923 388.163C464.222 389.197 464.371 390.386 464.371 391.73C464.371 392.935 464.206 394.06 463.875 395.105C463.555 396.139 463.091 397.041 462.483 397.808C461.875 398.566 461.14 399.163 460.276 399.6C459.412 400.027 458.436 400.24 457.348 400.24C456.389 400.24 455.573 400.085 454.901 399.776C454.24 399.467 453.637 399.04 453.093 398.496V405.423H449.654V383.684H451.734C452.203 383.684 452.501 383.902 452.629 384.339L452.917 386.051ZM467.713 400V383.684H469.792C470.261 383.684 470.56 383.902 470.688 384.339L470.912 385.763C471.211 385.422 471.52 385.113 471.84 384.835C472.16 384.547 472.501 384.302 472.864 384.099C473.237 383.886 473.631 383.721 474.047 383.604C474.474 383.486 474.932 383.428 475.423 383.428C475.946 383.428 476.425 383.502 476.863 383.652C477.3 383.801 477.684 384.014 478.014 384.291C478.356 384.569 478.649 384.905 478.894 385.299C479.14 385.694 479.342 386.136 479.502 386.627C479.747 386.062 480.057 385.576 480.43 385.171C480.803 384.766 481.219 384.435 481.678 384.179C482.136 383.923 482.621 383.737 483.133 383.62C483.656 383.492 484.184 383.428 484.717 383.428C485.592 383.428 486.37 383.566 487.053 383.843C487.746 384.121 488.327 384.526 488.796 385.059C489.276 385.582 489.639 386.227 489.884 386.995C490.129 387.763 490.252 388.637 490.252 389.618V400H486.813V389.618C486.813 388.466 486.562 387.603 486.061 387.027C485.57 386.44 484.84 386.147 483.869 386.147C483.432 386.147 483.021 386.222 482.637 386.371C482.254 386.52 481.918 386.739 481.63 387.027C481.342 387.315 481.112 387.677 480.942 388.115C480.782 388.541 480.702 389.042 480.702 389.618V400H477.263V389.618C477.263 388.424 477.023 387.549 476.543 386.995C476.063 386.43 475.359 386.147 474.431 386.147C473.791 386.147 473.2 386.312 472.656 386.643C472.112 386.963 471.611 387.405 471.152 387.971V400H467.713Z" fill="black" fill-opacity="0.69"/>
<path d="M616.159 385.475C616.713 385.358 617.241 385.272 617.742 385.219C618.254 385.166 618.745 385.139 619.214 385.139C620.419 385.139 621.48 385.32 622.397 385.683C623.325 386.035 624.098 386.526 624.717 387.155C625.346 387.784 625.815 388.525 626.125 389.378C626.444 390.221 626.604 391.138 626.604 392.13C626.604 393.356 626.391 394.471 625.965 395.473C625.538 396.475 624.946 397.334 624.189 398.048C623.432 398.752 622.536 399.296 621.502 399.68C620.478 400.064 619.369 400.256 618.174 400.256C617.47 400.256 616.799 400.187 616.159 400.048C615.529 399.909 614.938 399.723 614.383 399.488C613.829 399.243 613.317 398.966 612.847 398.656C612.378 398.336 611.957 398.006 611.584 397.665L612.639 396.193C612.863 395.873 613.162 395.713 613.535 395.713C613.77 395.713 614.026 395.798 614.303 395.969C614.58 396.139 614.9 396.326 615.263 396.529C615.636 396.721 616.073 396.902 616.575 397.073C617.076 397.243 617.673 397.329 618.366 397.329C619.123 397.329 619.801 397.206 620.398 396.961C620.995 396.715 621.496 396.374 621.901 395.937C622.317 395.489 622.632 394.956 622.845 394.337C623.059 393.719 623.165 393.041 623.165 392.306C623.165 391.634 623.064 391.031 622.861 390.498C622.669 389.965 622.376 389.512 621.981 389.138C621.598 388.765 621.112 388.482 620.526 388.291C619.939 388.088 619.262 387.987 618.494 387.987C617.929 387.987 617.348 388.035 616.751 388.131C616.164 388.227 615.567 388.376 614.959 388.578L612.815 387.971L614.703 376.965H625.853V378.453C625.853 378.943 625.698 379.343 625.389 379.652C625.079 379.962 624.562 380.116 623.837 380.116H617.086L616.159 385.475ZM634.093 395.905C634.573 396.523 635.096 396.961 635.661 397.217C636.237 397.462 636.871 397.585 637.565 397.585C638.908 397.585 639.953 397.094 640.7 396.113C641.457 395.132 641.836 393.671 641.836 391.73C641.836 390.727 641.75 389.874 641.58 389.17C641.409 388.456 641.164 387.875 640.844 387.427C640.524 386.979 640.135 386.654 639.676 386.451C639.218 386.248 638.7 386.147 638.124 386.147C637.25 386.147 636.493 386.339 635.853 386.723C635.224 387.096 634.637 387.635 634.093 388.339V395.905ZM633.917 386.051C634.6 385.251 635.373 384.606 636.237 384.115C637.111 383.625 638.124 383.38 639.276 383.38C640.193 383.38 641.025 383.566 641.772 383.939C642.518 384.302 643.158 384.835 643.691 385.539C644.224 386.243 644.635 387.117 644.923 388.163C645.222 389.197 645.371 390.386 645.371 391.73C645.371 392.935 645.206 394.06 644.875 395.105C644.555 396.139 644.091 397.041 643.483 397.808C642.875 398.566 642.14 399.163 641.276 399.6C640.412 400.027 639.436 400.24 638.348 400.24C637.389 400.24 636.573 400.085 635.901 399.776C635.24 399.467 634.637 399.04 634.093 398.496V405.423H630.654V383.684H632.734C633.203 383.684 633.501 383.902 633.629 384.339L633.917 386.051ZM648.713 400V383.684H650.792C651.261 383.684 651.56 383.902 651.688 384.339L651.912 385.763C652.211 385.422 652.52 385.113 652.84 384.835C653.16 384.547 653.501 384.302 653.864 384.099C654.237 383.886 654.631 383.721 655.047 383.604C655.474 383.486 655.932 383.428 656.423 383.428C656.946 383.428 657.425 383.502 657.863 383.652C658.3 383.801 658.684 384.014 659.014 384.291C659.356 384.569 659.649 384.905 659.894 385.299C660.14 385.694 660.342 386.136 660.502 386.627C660.747 386.062 661.057 385.576 661.43 385.171C661.803 384.766 662.219 384.435 662.678 384.179C663.136 383.923 663.621 383.737 664.133 383.62C664.656 383.492 665.184 383.428 665.717 383.428C666.592 383.428 667.37 383.566 668.053 383.843C668.746 384.121 669.327 384.526 669.796 385.059C670.276 385.582 670.639 386.227 670.884 386.995C671.129 387.763 671.252 388.637 671.252 389.618V400H667.813V389.618C667.813 388.466 667.562 387.603 667.061 387.027C666.57 386.44 665.84 386.147 664.869 386.147C664.432 386.147 664.021 386.222 663.637 386.371C663.254 386.52 662.918 386.739 662.63 387.027C662.342 387.315 662.112 387.677 661.942 388.115C661.782 388.541 661.702 389.042 661.702 389.618V400H658.263V389.618C658.263 388.424 658.023 387.549 657.543 386.995C657.063 386.43 656.359 386.147 655.431 386.147C654.791 386.147 654.2 386.312 653.656 386.643C653.112 386.963 652.611 387.405 652.152 387.971V400H648.713Z" fill="black" fill-opacity="0.69"/>
<path d="M800.246 397.409C800.939 397.409 801.574 397.297 802.15 397.073C802.725 396.838 803.216 396.518 803.621 396.113C804.037 395.708 804.357 395.228 804.581 394.673C804.805 394.119 804.917 393.516 804.917 392.866C804.917 392.162 804.805 391.532 804.581 390.978C804.368 390.413 804.059 389.938 803.653 389.554C803.259 389.17 802.779 388.877 802.214 388.674C801.659 388.461 801.046 388.355 800.374 388.355C799.681 388.355 799.052 388.472 798.486 388.706C797.932 388.941 797.457 389.261 797.063 389.666C796.668 390.071 796.364 390.546 796.151 391.09C795.938 391.634 795.831 392.21 795.831 392.818C795.831 393.5 795.927 394.124 796.119 394.689C796.311 395.254 796.593 395.74 796.967 396.145C797.34 396.539 797.799 396.849 798.342 397.073C798.897 397.297 799.532 397.409 800.246 397.409ZM798.982 385.443C798.812 385.656 798.646 385.859 798.486 386.051C798.337 386.243 798.188 386.435 798.038 386.627C798.529 386.35 799.068 386.131 799.654 385.971C800.241 385.811 800.87 385.731 801.542 385.731C802.438 385.731 803.296 385.88 804.117 386.179C804.938 386.467 805.658 386.904 806.277 387.491C806.906 388.067 807.407 388.786 807.78 389.65C808.154 390.503 808.34 391.49 808.34 392.61C808.34 393.676 808.143 394.673 807.748 395.601C807.364 396.529 806.821 397.339 806.117 398.032C805.413 398.715 804.565 399.259 803.573 399.664C802.592 400.059 801.504 400.256 800.31 400.256C799.116 400.256 798.038 400.064 797.079 399.68C796.119 399.296 795.298 398.758 794.615 398.064C793.943 397.361 793.426 396.518 793.064 395.537C792.701 394.556 792.52 393.463 792.52 392.258C792.52 391.213 792.744 390.119 793.192 388.978C793.639 387.837 794.333 386.638 795.271 385.379L800.934 377.781C801.104 377.557 801.35 377.365 801.67 377.205C802 377.045 802.368 376.965 802.773 376.965H805.813L798.982 385.443ZM815.093 395.905C815.573 396.523 816.096 396.961 816.661 397.217C817.237 397.462 817.871 397.585 818.565 397.585C819.908 397.585 820.953 397.094 821.7 396.113C822.457 395.132 822.836 393.671 822.836 391.73C822.836 390.727 822.75 389.874 822.58 389.17C822.409 388.456 822.164 387.875 821.844 387.427C821.524 386.979 821.135 386.654 820.676 386.451C820.218 386.248 819.7 386.147 819.124 386.147C818.25 386.147 817.493 386.339 816.853 386.723C816.224 387.096 815.637 387.635 815.093 388.339V395.905ZM814.917 386.051C815.6 385.251 816.373 384.606 817.237 384.115C818.111 383.625 819.124 383.38 820.276 383.38C821.193 383.38 822.025 383.566 822.772 383.939C823.518 384.302 824.158 384.835 824.691 385.539C825.224 386.243 825.635 387.117 825.923 388.163C826.222 389.197 826.371 390.386 826.371 391.73C826.371 392.935 826.206 394.06 825.875 395.105C825.555 396.139 825.091 397.041 824.483 397.808C823.875 398.566 823.14 399.163 822.276 399.6C821.412 400.027 820.436 400.24 819.348 400.24C818.389 400.24 817.573 400.085 816.901 399.776C816.24 399.467 815.637 399.04 815.093 398.496V405.423H811.654V383.684H813.734C814.203 383.684 814.501 383.902 814.629 384.339L814.917 386.051ZM829.713 400V383.684H831.792C832.261 383.684 832.56 383.902 832.688 384.339L832.912 385.763C833.211 385.422 833.52 385.113 833.84 384.835C834.16 384.547 834.501 384.302 834.864 384.099C835.237 383.886 835.631 383.721 836.047 383.604C836.474 383.486 836.932 383.428 837.423 383.428C837.946 383.428 838.425 383.502 838.863 383.652C839.3 383.801 839.684 384.014 840.014 384.291C840.356 384.569 840.649 384.905 840.894 385.299C841.14 385.694 841.342 386.136 841.502 386.627C841.747 386.062 842.057 385.576 842.43 385.171C842.803 384.766 843.219 384.435 843.678 384.179C844.136 383.923 844.621 383.737 845.133 383.62C845.656 383.492 846.184 383.428 846.717 383.428C847.592 383.428 848.37 383.566 849.053 383.843C849.746 384.121 850.327 384.526 850.796 385.059C851.276 385.582 851.639 386.227 851.884 386.995C852.129 387.763 852.252 388.637 852.252 389.618V400H848.813V389.618C848.813 388.466 848.562 387.603 848.061 387.027C847.57 386.44 846.84 386.147 845.869 386.147C845.432 386.147 845.021 386.222 844.637 386.371C844.254 386.52 843.918 386.739 843.63 387.027C843.342 387.315 843.112 387.677 842.942 388.115C842.782 388.541 842.702 389.042 842.702 389.618V400H839.263V389.618C839.263 388.424 839.023 387.549 838.543 386.995C838.063 386.43 837.359 386.147 836.431 386.147C835.791 386.147 835.2 386.312 834.656 386.643C834.112 386.963 833.611 387.405 833.152 387.971V400H829.713Z" fill="black" fill-opacity="0.69"/>
</g>
<rect x="2.02239" y="2.02239" width="894.955" height="438.955" rx="78.8731" stroke="#B06B75" stroke-width="4.04478"/>
<defs>
<linearGradient id="paint0_linear_3341_2154" x1="279.5" y1="119" x2="279" y2="439.5" gradientUnits="userSpaceOnUse">
<stop stop-color="#E9D6DB"/>
<stop offset="1" stop-color="#FDFBFF"/>
</linearGradient>
<linearGradient id="paint1_linear_3341_2154" x1="642.5" y1="119" x2="642" y2="429.5" gradientUnits="userSpaceOnUse">
<stop stop-color="#B06B75"/>
<stop offset="1" stop-color="#FDFBFF"/>
</linearGradient>
<clipPath id="clip0_3341_2154">
<rect width="899" height="443" rx="80.8955" fill="white"/>
</clipPath>
</defs>
</svg>
